<?xml version="1.0"?>
<svg xmlns="http://www.w3.org/2000/svg" xmlns:xlink="http://www.w3.org/1999/xlink" xmlns:svgjs="http://svgjs.com/svgjs" version="1.1" width="512" height="512" x="0" y="0" viewBox="0 0 512 512" style="enable-background:new 0 0 512 512" xml:space="preserve" class=""><g><g xmlns="http://www.w3.org/2000/svg"><path d="m177.835 334.189c-2.929-2.928-7.678-2.928-10.606 0l-80.154 80.154c-2.929 2.93-2.929 7.678 0 10.607 1.464 1.464 3.384 2.196 5.303 2.196s3.839-.732 5.303-2.196l80.154-80.154c2.929-2.929 2.929-7.677 0-10.607zm-37.123-68.943c-2.929-2.928-7.678-2.928-10.606 0l-127.885 127.884c-2.929 2.93-2.929 7.678 0 10.607 1.464 1.464 3.384 2.196 5.303 2.196s3.839-.732 5.303-2.196l127.884-127.884c2.93-2.929 2.93-7.677.001-10.607zm101.023 100.502-133.448 133.448c-2.929 2.93-2.929 7.678 0 10.607 1.464 1.464 3.384 2.196 5.303 2.196s3.839-.732 5.303-2.196l133.448-133.448c2.929-2.93 2.929-7.678 0-10.607-2.928-2.928-7.677-2.928-10.606 0zm270.239-196.151c0-.048.002-.097.002-.145 0-93.731-76.986-169.452-169.452-169.452-31.988 0-63.729 9.183-90.65 26.262-3.498 2.219-4.535 6.853-2.315 10.351 2.218 3.498 6.852 4.537 10.351 2.315 9.618-6.101 19.834-11.065 30.452-14.871l44.664 32.45v49.962l-55.587 40.385-41.856-18.952-17.201-52.941c5.508-7.131 11.655-13.818 18.417-19.95 3.068-2.783 3.3-7.526.517-10.594-2.782-3.068-7.526-3.3-10.594-.518-35.101 31.828-55.648 77.804-55.648 125.552 0 .048.002.096.002.144.236 93.136 78.373 169.308 169.45 169.308 90.169.001 169.212-75.758 169.448-169.306zm-15.667-14.451-33.914-24.641 12.938-39.819c11.433 19.205 18.819 41.085 20.976 64.46zm-31.656-80.133-17.185 52.889-41.856 18.952-55.586-40.385v-49.962l44.647-32.438c27.916 10.043 52.127 27.91 69.98 50.944zm-156.053-56.246c11.064-2.482 22.431-3.767 33.926-3.767 11.654 0 23.007 1.306 33.93 3.764l-33.93 24.651zm33.926 100.794 53.39 38.79-20.393 62.764h-65.994l-20.393-62.764zm-132.808-28.881 12.939 39.825-33.901 24.631c2.141-22.862 9.365-44.881 20.962-64.456zm5.235 165.738c-16.13-23.586-25.894-51.85-26.802-82.302l44.203-32.116 41.855 18.952 21.439 65.983-25.211 29.483zm11.668 15h41.822l12.952 39.861c-21.102-9.131-39.778-22.836-54.774-39.861zm115.905 52.486c-15.014 0-29.53-2.162-43.264-6.176l-16.938-52.131 25.211-29.483h69.983l25.211 29.483-8.753 26.938c-1.28 3.939.876 8.17 4.815 9.45 3.839 1.248 8.163-.827 9.451-4.815l8.368-25.753h41.822c-28.326 32.16-69.784 52.487-115.906 52.487zm127.573-67.486h-55.484l-25.211-29.483 21.439-65.983 41.855-18.952 44.203 32.116c-.908 30.452-10.672 58.716-26.802 82.302z" fill="#ffffff" data-original="#000000" style="" class=""/></g></g></svg>
