<?xml version="1.0"?>
<svg xmlns="http://www.w3.org/2000/svg" xmlns:xlink="http://www.w3.org/1999/xlink" xmlns:svgjs="http://svgjs.com/svgjs" version="1.1" width="512" height="512" x="0" y="0" viewBox="0 0 64 64" style="enable-background:new 0 0 512 512" xml:space="preserve" class=""><g><path xmlns="http://www.w3.org/2000/svg" d="m18.445 14.832 3 2a1 1 0 1 0 1.11-1.664l-1.755-1.168 1.752-1.168a1 1 0 0 0 -1.11-1.664l-3 2a1 1 0 0 0 0 1.664z" fill="#00fa9a" data-original="#000000" style="" class=""/><path xmlns="http://www.w3.org/2000/svg" d="m29.168 16.555a1 1 0 0 0 1.387.277l3-2a1 1 0 0 0 0-1.664l-3-2a1 1 0 0 0 -1.11 1.664l1.755 1.168-1.752 1.168a1 1 0 0 0 -.28 1.387z" fill="#00fa9a" data-original="#000000" style="" class=""/><path xmlns="http://www.w3.org/2000/svg" d="m24.684 17.949a1 1 0 0 0 1.264-.633l2-6a1 1 0 1 0 -1.9-.632l-2 6a1 1 0 0 0 .636 1.265z" fill="#00fa9a" data-original="#000000" style="" class=""/><path xmlns="http://www.w3.org/2000/svg" d="m19 19h6v2h-6z" fill="#00fa9a" data-original="#000000" style="" class=""/><path xmlns="http://www.w3.org/2000/svg" d="m27 19h2v2h-2z" fill="#00fa9a" data-original="#000000" style="" class=""/><path xmlns="http://www.w3.org/2000/svg" d="m23 22h12v2h-12z" fill="#00fa9a" data-original="#000000" style="" class=""/><path xmlns="http://www.w3.org/2000/svg" d="m41 22h9v2h-9z" fill="#00fa9a" data-original="#000000" style="" class=""/><path xmlns="http://www.w3.org/2000/svg" d="m23 25h2v2h-2z" fill="#00fa9a" data-original="#000000" style="" class=""/><path xmlns="http://www.w3.org/2000/svg" d="m27 25h12v2h-12z" fill="#00fa9a" data-original="#000000" style="" class=""/><path xmlns="http://www.w3.org/2000/svg" d="m41 25h4v2h-4z" fill="#00fa9a" data-original="#000000" style="" class=""/><path xmlns="http://www.w3.org/2000/svg" d="m30 28h6v2h-6z" fill="#00fa9a" data-original="#000000" style="" class=""/><path xmlns="http://www.w3.org/2000/svg" d="m38 28h2v2h-2z" fill="#00fa9a" data-original="#000000" style="" class=""/><path xmlns="http://www.w3.org/2000/svg" d="m37 22h2v2h-2z" fill="#00fa9a" data-original="#000000" style="" class=""/><path xmlns="http://www.w3.org/2000/svg" d="m61 48h-17.184a2.966 2.966 0 0 0 .184-1 3 3 0 0 0 -3-3h-3.279l-1.334-4h14.613a5.006 5.006 0 0 0 5-5v-28a5.006 5.006 0 0 0 -5-5h-38a5.006 5.006 0 0 0 -5 5v21h-5a1 1 0 0 0 -1 1v32a1 1 0 0 0 1 1h24a1 1 0 0 0 1-1v-11h2v11a1 1 0 0 0 1 1h30a1 1 0 0 0 1-1v-12a1 1 0 0 0 -1-1zm-25.388-4h-7.612v-4h6.279zm15.388-6h-23v-4h26v1a3 3 0 0 1 -3 3zm-38-34h38a3 3 0 0 1 2.816 2h-43.632a3 3 0 0 1 2.816-2zm-3 4h44v24h-26v-3a1 1 0 0 0 -1-1h-11v-16a1 1 0 0 0 -2 0v16h-4zm16 52h-22v-30h22zm2-14h13a1 1 0 0 1 0 2h-13zm32 14h-28v-10h28z" fill="#00fa9a" data-original="#000000" style="" class=""/><path xmlns="http://www.w3.org/2000/svg" d="m36 51h2v2h-2z" fill="#00fa9a" data-original="#000000" style="" class=""/><path xmlns="http://www.w3.org/2000/svg" d="m39 51h2v2h-2z" fill="#00fa9a" data-original="#000000" style="" class=""/><path xmlns="http://www.w3.org/2000/svg" d="m42 51h2v2h-2z" fill="#00fa9a" data-original="#000000" style="" class=""/><path xmlns="http://www.w3.org/2000/svg" d="m45 51h2v2h-2z" fill="#00fa9a" data-original="#000000" style="" class=""/><path xmlns="http://www.w3.org/2000/svg" d="m48 51h2v2h-2z" fill="#00fa9a" data-original="#000000" style="" class=""/><path xmlns="http://www.w3.org/2000/svg" d="m51 51h2v2h-2z" fill="#00fa9a" data-original="#000000" style="" class=""/><path xmlns="http://www.w3.org/2000/svg" d="m54 51h2v2h-2z" fill="#00fa9a" data-original="#000000" style="" class=""/><path xmlns="http://www.w3.org/2000/svg" d="m36 54h2v2h-2z" fill="#00fa9a" data-original="#000000" style="" class=""/><path xmlns="http://www.w3.org/2000/svg" d="m39 54h2v2h-2z" fill="#00fa9a" data-original="#000000" style="" class=""/><path xmlns="http://www.w3.org/2000/svg" d="m42 54h2v2h-2z" fill="#00fa9a" data-original="#000000" style="" class=""/><path xmlns="http://www.w3.org/2000/svg" d="m45 54h2v2h-2z" fill="#00fa9a" data-original="#000000" style="" class=""/><path xmlns="http://www.w3.org/2000/svg" d="m48 54h2v2h-2z" fill="#00fa9a" data-original="#000000" style="" class=""/><path xmlns="http://www.w3.org/2000/svg" d="m51 54h2v2h-2z" fill="#00fa9a" data-original="#000000" style="" class=""/><path xmlns="http://www.w3.org/2000/svg" d="m54 54h2v2h-2z" fill="#00fa9a" data-original="#000000" style="" class=""/><path xmlns="http://www.w3.org/2000/svg" d="m36 57h2v2h-2z" fill="#00fa9a" data-original="#000000" style="" class=""/><path xmlns="http://www.w3.org/2000/svg" d="m39 57h14v2h-14z" fill="#00fa9a" data-original="#000000" style="" class=""/><path xmlns="http://www.w3.org/2000/svg" d="m54 57h2v2h-2z" fill="#00fa9a" data-original="#000000" style="" class=""/><path xmlns="http://www.w3.org/2000/svg" d="m57 51h2v2h-2z" fill="#00fa9a" data-original="#000000" style="" class=""/><path xmlns="http://www.w3.org/2000/svg" d="m57 54h2v2h-2z" fill="#00fa9a" data-original="#000000" style="" class=""/><path xmlns="http://www.w3.org/2000/svg" d="m57 57h2v2h-2z" fill="#00fa9a" data-original="#000000" style="" class=""/><path xmlns="http://www.w3.org/2000/svg" d="m33 51h2v2h-2z" fill="#00fa9a" data-original="#000000" style="" class=""/><path xmlns="http://www.w3.org/2000/svg" d="m33 54h2v2h-2z" fill="#00fa9a" data-original="#000000" style="" class=""/><path xmlns="http://www.w3.org/2000/svg" d="m33 57h2v2h-2z" fill="#00fa9a" data-original="#000000" style="" class=""/><path xmlns="http://www.w3.org/2000/svg" d="m17.5 36a2.5 2.5 0 0 0 0-5h-5a2.5 2.5 0 0 0 0 5h1.5v2.382l-3.447 1.718a1 1 0 0 0 0 1.79l3.447 1.728v2.382h-3a1 1 0 0 0 -1 1v4a1 1 0 0 0 1 1h3v2h-1.5a2.5 2.5 0 0 0 0 5h5a2.5 2.5 0 0 0 0-5h-1.5v-2h3a1 1 0 0 0 1-1v-4a1 1 0 0 0 -1-1h-3v-2.382l3.447-1.718a1 1 0 0 0 0-1.79l-3.447-1.728v-2.382zm.5 20.5a.5.5 0 0 1 -.5.5h-5a.5.5 0 0 1 0-1h5a.5.5 0 0 1 .5.5zm0-8.5v2h-6v-2zm-3-6.118-1.764-.882 1.764-.882 1.764.882zm-3-8.382a.5.5 0 0 1 .5-.5h5a.5.5 0 0 1 0 1h-5a.5.5 0 0 1 -.5-.5z" fill="#00fa9a" data-original="#000000" style="" class=""/></g></svg>
