<?xml version="1.0"?>
<svg xmlns="http://www.w3.org/2000/svg" xmlns:xlink="http://www.w3.org/1999/xlink" id="Gradient" viewBox="0 0 512 512" width="512" height="512"><defs><linearGradient id="linear-gradient" x1="256" y1="496" x2="256" y2="16" gradientUnits="userSpaceOnUse"><stop offset="0" stop-color="#12c2e9"/><stop offset="0.5" stop-color="#c471ed"/><stop offset="1" stop-color="#f64f59"/></linearGradient></defs><path d="M349.657,18.343A8,8,0,0,0,344,16H120A56.064,56.064,0,0,0,64,72V440a56.064,56.064,0,0,0,56,56H392a56.064,56.064,0,0,0,56-56V120a8,8,0,0,0-2.343-5.657ZM352,43.313,420.687,112H392a40.045,40.045,0,0,1-40-40ZM120,32H336V72a56.064,56.064,0,0,0,56,56h40V352H80V72A40.045,40.045,0,0,1,120,32ZM392,480H120a40.045,40.045,0,0,1-40-40V368H432v72A40.045,40.045,0,0,1,392,480ZM176,392v64a8,8,0,0,1-16,0V432H144v24a8,8,0,0,1-16,0V392a8,8,0,0,1,16,0v24h16V392a8,8,0,0,1,16,0Zm64,0a8,8,0,0,1-8,8h-8v56a8,8,0,0,1-16,0V400h-8a8,8,0,0,1,0-16h32A8,8,0,0,1,240,392Zm80,0v64a8,8,0,0,1-16,0V425.889l-8.845,17.689a8,8,0,0,1-14.31,0L272,425.889V456a8,8,0,0,1-16,0V392a8,8,0,0,1,15.155-3.578L288,422.111l16.845-33.689A8,8,0,0,1,320,392Zm64,64a8,8,0,0,1-8,8H344a8,8,0,0,1-8-8V392a8,8,0,0,1,16,0v56h24A8,8,0,0,1,384,456ZM146.343,213.657a8,8,0,0,1,0-11.314l48-48a8,8,0,0,1,11.314,11.314L163.313,208l42.344,42.343a8,8,0,0,1-11.314,11.314Zm160,36.686L348.687,208l-42.344-42.343a8,8,0,0,1,11.314-11.314l48,48a8,8,0,0,1,0,11.314l-48,48a8,8,0,1,1-11.314-11.314ZM224.411,277.47l48-144a8,8,0,1,1,15.178,5.06l-48,144a8,8,0,0,1-15.178-5.06Z" style="fill:url(#linear-gradient)"/></svg>
