<?xml version="1.0"?>
<svg xmlns="http://www.w3.org/2000/svg" xmlns:xlink="http://www.w3.org/1999/xlink" xmlns:svgjs="http://svgjs.com/svgjs" version="1.1" width="512" height="512" x="0" y="0" viewBox="0 0 512 512" style="enable-background:new 0 0 512 512" xml:space="preserve" class=""><g><g xmlns="http://www.w3.org/2000/svg"><path d="m457.33 255.07h-22.11c-.937-6.749-5.688-12.361-12.428-14.361-21.151-6.268-45.851-6.313-71.051-.331 6.349-13.565 9.904-28.688 9.904-44.628 0-24.383-8.506-48.174-23.951-66.988-15.23-18.554-36.484-31.479-59.846-36.393-1.023-.215-2.054-.416-3.089-.602-4.073-.733-7.976 1.979-8.708 6.055-.732 4.077 1.979 7.976 6.056 8.708.889.16 1.772.332 2.652.517 41.653 8.762 71.886 46.066 71.886 88.703 0 42.603-29.545 78.428-69.22 88.08v-77.529c0-7.548 6.141-13.689 13.688-13.689s13.688 6.141 13.688 13.689-6.141 13.688-13.688 13.688c-4.143 0-7.5 3.358-7.5 7.5s3.357 7.5 7.5 7.5c15.819 0 28.688-12.87 28.688-28.688 0-15.819-12.869-28.689-28.688-28.689s-28.688 12.87-28.688 28.689v79.863c-2.123.149-4.264.23-6.425.23s-4.302-.081-6.425-.23v-79.863c0-15.819-12.869-28.689-28.688-28.689s-28.688 12.87-28.688 28.689 12.869 28.688 28.688 28.688c4.143 0 7.5-3.358 7.5-7.5s-3.357-7.5-7.5-7.5c-7.548 0-13.688-6.141-13.688-13.688 0-7.548 6.141-13.689 13.688-13.689s13.688 6.141 13.688 13.689v77.529c-39.675-9.652-69.22-45.478-69.22-88.08 0-43.955 31.347-81.477 74.535-89.219 4.077-.731 6.79-4.628 6.059-8.706s-4.637-6.791-8.705-6.059c-50.347 9.025-86.889 52.757-86.889 103.983 0 15.94 3.555 31.063 9.904 44.628-25.202-5.982-49.901-5.937-71.053.332-6.738 1.999-11.489 7.611-12.426 14.36h-22.11c-12.406 0-22.5 10.093-22.5 22.5v25.87c0 4.142 3.357 7.5 7.5 7.5s7.5-3.358 7.5-7.5v-25.87c0-4.136 3.364-7.5 7.5-7.5h21.93v162.94c0 5.407 2.436 10.426 6.683 13.771 4.219 3.322 9.628 4.508 14.827 3.253 22.802-5.468 50.139-3.129 76.973 6.586 23.965 8.677 45.754 22.504 63.831 40.38h-184.244c-4.136 0-7.5-3.364-7.5-7.5v-151.209c0-4.142-3.357-7.5-7.5-7.5s-7.5 3.358-7.5 7.5v151.21c0 12.407 10.094 22.5 22.5 22.5h402.66c12.406 0 22.5-10.093 22.5-22.5v-211.93c0-12.407-10.094-22.5-22.5-22.5zm-152.53 34.356v54.604c0 6.512-5.298 11.81-11.81 11.81h-73.98c-6.512 0-11.81-5.298-11.81-11.81v-54.604c14.606 7.64 31.206 11.969 48.8 11.969s34.194-4.329 48.8-11.969zm-48.781 101.795c-.007 0-.013-.001-.019-.001s-.013.001-.019.001c-8.966-.011-16.256-7.306-16.256-16.274v-4.103h32.551v4.103c-.001 8.968-7.291 16.264-16.257 16.274zm-75.831 51.295c-29.561-10.704-59.954-13.214-85.586-7.066-.927.225-1.62-.123-2.04-.454-.359-.283-.963-.917-.963-1.986v-175.49c0-1.121.753-2.098 1.872-2.429 22.715-6.734 50.395-5.234 78.153 4.16 5.877 7.79 12.807 14.741 20.575 20.645v64.134c0 14.783 12.026 26.81 26.81 26.81h5.715v4.107c0 14.66 10.141 26.99 23.775 30.36v13.843c0 4.142 3.357 7.5 7.5 7.5s7.5-3.358 7.5-7.5v-13.843c13.634-3.369 23.775-15.7 23.775-30.36v-4.107h5.715c14.783 0 26.81-12.027 26.81-26.81v-64.134c7.768-5.904 14.698-12.855 20.575-20.645 27.759-9.394 55.435-10.892 78.151-4.161 1.121.333 1.874 1.309 1.874 2.43v175.49c0 1.068-.604 1.703-.963 1.986-.42.33-1.113.675-2.049.452-25.623-6.146-56.016-3.635-85.577 7.068-25.582 9.262-48.888 23.925-68.312 42.862v-31.378c0-4.142-3.357-7.5-7.5-7.5s-7.5 3.358-7.5 7.5v31.389c-19.423-18.941-42.725-33.61-68.31-42.873zm284.642 46.984c0 4.136-3.364 7.5-7.5 7.5h-184.243c18.077-17.876 39.866-31.704 63.831-40.38 26.837-9.716 54.172-12.053 76.964-6.588 5.208 1.256 10.616.071 14.836-3.251 4.247-3.344 6.683-8.364 6.683-13.771v-162.94h21.93c4.136 0 7.5 3.364 7.5 7.5v211.93z" fill="#3cb371" data-original="#000000" style="" class=""/><path d="m180.336 90.229c1.465 1.465 3.384 2.197 5.304 2.197 1.919 0 3.839-.732 5.304-2.197 2.929-2.929 2.929-7.678 0-10.606l-34.14-34.14c-2.929-2.929-7.677-2.93-10.607 0-2.929 2.929-2.929 7.678 0 10.606z" fill="#3cb371" data-original="#000000" style="" class=""/><path d="m326.36 92.426c1.919 0 3.839-.732 5.304-2.197l34.14-34.14c2.929-2.929 2.929-7.678 0-10.606-2.93-2.929-7.678-2.929-10.607 0l-34.14 34.14c-2.929 2.929-2.929 7.678 0 10.606 1.464 1.464 3.384 2.197 5.303 2.197z" fill="#3cb371" data-original="#000000" style="" class=""/><path d="m256 63.282c4.143 0 7.5-3.358 7.5-7.5v-48.282c0-4.142-3.357-7.5-7.5-7.5s-7.5 3.358-7.5 7.5v48.282c0 4.142 3.357 7.5 7.5 7.5z" fill="#3cb371" data-original="#000000" style="" class=""/><path d="m211.646 67.806c1.196 2.888 3.988 4.632 6.932 4.632.956 0 1.929-.184 2.867-.573 3.826-1.585 5.645-5.972 4.059-9.799l-6.29-15.187c-1.585-3.827-5.972-5.646-9.799-4.059-3.826 1.585-5.645 5.972-4.059 9.799z" fill="#3cb371" data-original="#000000" style="" class=""/><path d="m290.555 71.865c.938.389 1.911.573 2.867.573 2.943 0 5.735-1.744 6.932-4.632l6.29-15.187c1.586-3.827-.232-8.214-4.059-9.799-3.828-1.586-8.215.232-9.799 4.059l-6.29 15.187c-1.586 3.827.233 8.214 4.059 9.799z" fill="#3cb371" data-original="#000000" style="" class=""/></g></g></svg>
