<?xml version="1.0"?>
<svg xmlns="http://www.w3.org/2000/svg" xmlns:xlink="http://www.w3.org/1999/xlink" xmlns:svgjs="http://svgjs.com/svgjs" version="1.1" width="512" height="512" x="0" y="0" viewBox="0 0 64 64" style="enable-background:new 0 0 512 512" xml:space="preserve" class=""><g><g xmlns="http://www.w3.org/2000/svg"><path d="m61 48.219-2.262.566c-.352-.791-1.039-1.391-1.877-1.644.087-.373.139-.755.139-1.141 0-1.781-.943-3.336-2.348-4.222l.71-1.893c.198-.53.711-.885 1.275-.885.752 0 1.363.611 1.363 1.362v.638h2v-.638c0-1.853-1.508-3.362-3.363-3.362-1.394 0-2.659.877-3.148 2.182l-.712 1.897c-.255-.041-.511-.079-.777-.079s-.522.038-.777.079l-.711-1.897c-.491-1.305-1.756-2.182-3.149-2.182-1.855 0-3.363 1.509-3.363 3.362v.638h2v-.638c0-.751.611-1.362 1.363-1.362.564 0 1.077.355 1.275.885l.71 1.893c-1.405.886-2.348 2.441-2.348 4.222 0 .386.052.768.14 1.141-.839.253-1.525.854-1.877 1.644l-2.263-.566v-2.219h-2v3.781l4 .999v2.22h-2v-1h-2v3h4.096c.07.513.179 1.014.326 1.501l-4.422.632v3.867h2v-2.133l3.226-.46c1.159 2.095 3.072 3.747 5.457 4.542l.317.105.316-.105c2.386-.795 4.298-2.446 5.457-4.542l3.227.46v2.133h2v-3.867l-4.421-.632c.147-.487.256-.988.326-1.501h4.095v-3h-2v1h-2v-2.219l4-.999v-3.782h-2zm-9-5.219c1.654 0 3 1.346 3 3 0 .345-.08.678-.194 1h-5.612c-.114-.322-.194-.655-.194-1 0-1.654 1.346-3 3-3zm2.068 6c-.868 1.353-1.562 2.806-2.068 4.324-.506-1.519-1.2-2.972-2.068-4.324zm-7.068 4.676v-3.676c0-.396.236-.733.571-.894 2.207 2.965 3.429 6.593 3.429 10.297v1.063c-2.437-1.351-4-3.927-4-6.79zm10 0c0 2.863-1.563 5.439-4 6.791v-1.063c0-3.704 1.222-7.332 3.429-10.298.335.161.571.498.571.894z" fill="#00fa9a" data-original="#000000" style="" class=""/><path d="m32 53c-1.654 0-3 1.346-3 3s1.346 3 3 3 3-1.346 3-3-1.346-3-3-3zm0 4c-.551 0-1-.448-1-1s.449-1 1-1 1 .448 1 1-.449 1-1 1z" fill="#00fa9a" data-original="#000000" style="" class=""/><path d="m50.434 1-4.208 7.013c-3.295-4.257-8.439-7.013-14.226-7.013-8.249 0-15.476 5.71-17.451 13.657-4.574 1.105-8.756 3.578-11.934 7.16l-.688.775c-.597.661-.927 1.516-.927 2.408 0 .895.332 1.751.925 2.403l.691.779c4.407 4.968 10.743 7.818 17.384 7.818 1.642 0 3.266-.176 4.846-.513.63.274 1.269.508 1.916.707l.357.598c.561.943.864 2.018.881 3.112l-2.863 14.316c-.091.452-.137.914-.137 1.374v.406c0 3.859 3.14 7 7 7s7-3.141 7-7v-.406c0-.46-.046-.922-.136-1.373l-2.864-14.317c.017-1.095.321-2.169.881-3.111l.34-.571c3.784-1.15 7.031-3.521 9.31-6.644l4.469 2.062v4.36h2v-5.64l-5.365-2.476c1.497-2.625 2.365-5.652 2.365-8.884 0-3.349-.936-6.476-2.535-9.164l4.101-6.836h11.434v-2zm-39.434 24c0-4.962 4.038-9 9-9s9 4.038 9 9-4.038 9-9 9-9-4.038-9-9zm20 0c0-2.835-1.087-5.414-2.855-7.367 2.932 1.219 5.591 3.085 7.743 5.511l.699.789c.267.293.413.671.413 1.067s-.146.774-.421 1.076l-.691.779c-2.152 2.426-4.81 4.293-7.743 5.511 1.768-1.952 2.855-4.531 2.855-7.366zm6.384 3.183.683-.77c.601-.662.933-1.518.933-2.413s-.332-1.751-.925-2.403l-.691-.779c-4.166-4.696-10.055-7.495-16.295-7.788 1.929-4.253 6.152-7.03 10.911-7.03 6.617 0 12 5.383 12 12 0 5.641-3.918 10.373-9.172 11.65.907-.752 1.764-1.574 2.556-2.467zm-33.272-1.328-.699-.789c-.267-.292-.413-.67-.413-1.066s.146-.774.413-1.067l.699-.789c2.152-2.426 4.81-4.293 7.743-5.511-1.768 1.953-2.855 4.532-2.855 7.367s1.087 5.414 2.855 7.367c-2.933-1.219-5.591-3.085-7.743-5.512zm32.791 27.758c.064.323.097.653.097.981v.406c0 2.757-2.243 5-5 5s-5-2.243-5-5v-.406c0-.328.033-.658.097-.98l2.723-13.614h4.379zm-2.836-15.613h-4.135c-.093-.765-.288-1.513-.587-2.223.876.132 1.76.223 2.655.223.904 0 1.785-.089 2.653-.218-.299.708-.492 1.455-.586 2.218zm-2.067-4c-1.301 0-2.581-.176-3.834-.49 1.132-.425 2.23-.939 3.283-1.535.183.012.365.025.551.025 7.72 0 14-6.28 14-14s-6.28-14-14-14c-5.856 0-11.017 3.602-13.074 9.029-.738.034-1.471.107-2.197.21 2.057-6.593 8.252-11.239 15.271-11.239 8.822 0 16 7.178 16 16s-7.178 16-16 16z" fill="#00fa9a" data-original="#000000" style="" class=""/><path d="m53 5h8v2h-8z" fill="#00fa9a" data-original="#000000" style="" class=""/><path d="m53 9h8v2h-8z" fill="#00fa9a" data-original="#000000" style="" class=""/><path d="m20 18c-3.86 0-7 3.14-7 7s3.14 7 7 7 7-3.14 7-7-3.14-7-7-7zm0 12c-2.757 0-5-2.243-5-5s2.243-5 5-5 5 2.243 5 5-2.243 5-5 5z" fill="#00fa9a" data-original="#000000" style="" class=""/><path d="m20 22c-1.654 0-3 1.346-3 3s1.346 3 3 3 3-1.346 3-3-1.346-3-3-3zm0 4c-.551 0-1-.449-1-1s.449-1 1-1 1 .449 1 1-.449 1-1 1z" fill="#00fa9a" data-original="#000000" style="" class=""/><path d="m5 40h18v2h-18z" fill="#00fa9a" data-original="#000000" style="" class=""/><path d="m5 44h18v2h-18z" fill="#00fa9a" data-original="#000000" style="" class=""/><path d="m5 48h18v2h-18z" fill="#00fa9a" data-original="#000000" style="" class=""/><path d="m5 52h2v2h-2z" fill="#00fa9a" data-original="#000000" style="" class=""/><path d="m13 52h2v2h-2z" fill="#00fa9a" data-original="#000000" style="" class=""/><path d="m9 52h2v2h-2z" fill="#00fa9a" data-original="#000000" style="" class=""/><path d="m21 52h2v2h-2z" fill="#00fa9a" data-original="#000000" style="" class=""/><path d="m17 52h2v2h-2z" fill="#00fa9a" data-original="#000000" style="" class=""/><path d="m32 9v2c4.411 0 8 3.589 8 8h2c0-5.514-4.486-10-10-10z" fill="#00fa9a" data-original="#000000" style="" class=""/></g></g></svg>
