<?xml version="1.0"?>
<svg xmlns="http://www.w3.org/2000/svg" xmlns:xlink="http://www.w3.org/1999/xlink" xmlns:svgjs="http://svgjs.com/svgjs" version="1.1" width="512" height="512" x="0" y="0" viewBox="0 0 512 512" style="enable-background:new 0 0 512 512" xml:space="preserve" class=""><g><g xmlns="http://www.w3.org/2000/svg"><path d="m156.409 353.659h199.182v48.734h-199.182z" fill="#ffecb2" data-original="#000000" style="" class=""/><path d="m480.138 231.996c-.595 0-1.185.019-1.772.051-9.41-52.377-55.212-92.12-110.297-92.12-61.894 0-112.069 50.176-112.069 112.07 0-61.894-50.175-112.069-112.069-112.069-55.085 0-100.887 39.744-110.297 92.12-.587-.032-1.177-.051-1.772-.051-17.597-.001-31.862 14.264-31.862 31.861s14.265 31.862 31.862 31.862 31.862-14.265 31.862-31.862c0-16.501-12.544-30.072-28.616-31.698 8.286-24.663 31.573-42.437 59.028-42.437 34.393 0 62.274 27.881 62.274 62.274v71.662h199.182v-71.662c0-34.393 27.881-62.274 62.273-62.274 27.454 0 50.742 17.774 59.028 42.437-16.072 1.626-28.616 15.197-28.616 31.698 0 17.597 14.265 31.862 31.862 31.862s31.862-14.265 31.862-31.862c-.001-17.597-14.266-31.862-31.863-31.862z" fill="#ffecb2" data-original="#000000" style="" class=""/><path d="m256 164.645c3.574-4.566 7.446-8.942 11.611-13.107 8.29-8.29 17.426-15.425 27.21-21.334-8.43-12.429-22.671-20.598-38.821-20.598s-30.391 8.168-38.821 20.598c9.784 5.908 18.92 13.044 27.21 21.334 4.165 4.165 8.037 8.541 11.611 13.107z" fill="#ffecb2" data-original="#000000" style="" class=""/></g></g></svg>
